<svg width="20" height="20" viewBox="0 0 20 20" fill="none" xmlns="http://www.w3.org/2000/svg">
<g clip-path="url(#clip0_122_7024)">
<path d="M20 20H0V2.5C0 1.83696 0.263392 1.20107 0.732233 0.732233C1.20107 0.263392 1.83696 0 2.5 0L17.5 0C18.163 0 18.7989 0.263392 19.2678 0.732233C19.7366 1.20107 20 1.83696 20 2.5V20ZM1.66667 18.3333H18.3333V2.5C18.3333 2.27899 18.2455 2.06702 18.0893 1.91074C17.933 1.75446 17.721 1.66667 17.5 1.66667H2.5C2.27899 1.66667 2.06702 1.75446 1.91074 1.91074C1.75446 2.06702 1.66667 2.27899 1.66667 2.5V18.3333Z" fill="white"/>
<path d="M7.77747 14.9325C7.55852 14.9331 7.34162 14.8903 7.13935 14.8065C6.93707 14.7226 6.75346 14.5995 6.59914 14.4442L2.74414 10.5892L3.92247 9.41083L7.77747 13.2658L16.0775 4.96666L17.2558 6.14499L8.95664 14.4442C8.80217 14.5995 8.61841 14.7227 8.416 14.8065C8.21359 14.8903 7.99655 14.9331 7.77747 14.9325Z" fill="white"/>
</g>
<defs>
<clipPath id="clip0_122_7024">
<rect width="20" height="20" fill="white"/>
</clipPath>
</defs>
</svg>
