<svg width="639" height="116" viewBox="0 0 639 116" fill="none" xmlns="http://www.w3.org/2000/svg">
<g filter="url(#filter0_d_26_6)">
<path d="M21.4107 106C18.6294 106 16.2454 105.156 14.2587 103.467C12.3714 101.679 11.4277 99.4937 11.4277 96.911V10.789C11.4277 8.20633 12.3714 6.07066 14.2587 4.38199C16.1461 2.59399 18.5301 1.69999 21.4107 1.69999H54.4887C63.3294 1.69999 71.1271 3.38866 77.8817 6.766C84.7357 10.1433 90.0004 14.9113 93.6757 21.07C97.4504 27.1293 99.3377 34.0827 99.3377 41.93V65.472C99.3377 73.3193 97.4504 80.3223 93.6757 86.481C89.9011 92.6397 84.5867 97.4573 77.7327 100.934C70.9781 104.311 63.2301 106 54.4887 106H21.4107ZM52.9987 88.865C61.6407 88.865 68.1967 86.928 72.6667 83.054C77.1367 79.0807 79.3717 73.2697 79.3717 65.621V41.632C79.3717 34.182 77.1367 28.52 72.6667 24.646C68.1967 20.772 61.6407 18.835 52.9987 18.835H31.3937V88.865H52.9987ZM124.285 106C121.603 106 119.268 105.106 117.282 103.318C115.295 101.53 114.302 99.3943 114.302 96.911V10.789C114.302 8.30566 115.245 6.16999 117.133 4.38199C119.119 2.59399 121.503 1.69999 124.285 1.69999H164.366C173.902 1.69999 181.501 4.38199 187.163 9.746C192.924 15.0107 195.805 22.113 195.805 31.053C195.805 35.3243 194.662 39.397 192.378 43.271C190.093 47.0457 187.063 49.976 183.289 52.062V52.509C188.454 54.297 192.527 57.2273 195.507 61.3C198.586 65.3727 200.126 70.0413 200.126 75.306C200.126 81.266 198.735 86.5803 195.954 91.249C193.172 95.9177 189.298 99.5433 184.332 102.126C179.365 104.709 173.703 106 167.346 106H124.285ZM164.068 45.506C167.346 45.506 170.127 44.165 172.412 41.483C174.796 38.801 175.988 35.5727 175.988 31.798C175.988 27.7253 174.895 24.497 172.71 22.113C170.624 19.729 167.743 18.537 164.068 18.537H133.672V45.506H164.068ZM167.048 89.163C171.12 89.163 174.349 87.971 176.733 85.587C179.117 83.1037 180.309 79.7263 180.309 75.455C180.309 71.283 179.117 68.0547 176.733 65.77C174.448 63.386 171.22 62.194 167.048 62.194H133.672V89.163H167.048ZM210.981 71.283C210.981 65.7203 212.123 61.449 214.408 58.469C216.692 55.3897 220.219 53.85 224.987 53.85H273.412C273.412 65.472 268.743 71.283 259.406 71.283H210.981Z" fill="white"/>
<path d="M294.459 106C293.466 106 292.572 105.603 291.777 104.808C290.982 104.013 290.585 103.119 290.585 102.126V5.425C290.585 4.43166 290.933 3.58733 291.628 2.892C292.423 2.09733 293.366 1.69999 294.459 1.69999H337.52C345.069 1.69999 351.079 4.23299 355.549 9.29899C360.019 14.2657 362.254 20.9707 362.254 29.414C362.254 34.5793 360.863 39.397 358.082 43.867C355.4 48.2377 352.023 51.2177 347.95 52.807V53.105C354.009 54.7937 358.628 57.7737 361.807 62.045C364.986 66.217 366.575 71.5313 366.575 77.988C366.575 86.332 364.29 93.0867 359.721 98.252C355.251 103.417 349.341 106 341.99 106H294.459ZM337.222 50.274C340.5 50.274 343.53 49.3303 346.311 47.443C349.092 45.5557 351.278 43.0227 352.867 39.844C354.556 36.566 355.4 33.0397 355.4 29.265C355.4 22.709 353.811 17.643 350.632 14.067C347.453 10.3917 342.983 8.55399 337.222 8.55399H298.184V50.274H337.222ZM340.202 99.146C346.361 99.146 351.129 97.3083 354.506 93.633C357.983 89.8583 359.721 84.6433 359.721 77.988C359.721 71.432 357.983 66.366 354.506 62.79C351.129 59.1147 346.361 57.277 340.202 57.277H298.184V99.146H340.202ZM390.494 106C389.402 106 388.458 105.652 387.663 104.957C386.968 104.262 386.62 103.417 386.62 102.424V8.55399C386.62 5.97133 387.266 3.98467 388.557 2.594C389.948 1.10399 391.835 0.358992 394.219 0.358992V99.146H445.773C450.641 99.146 453.074 101.431 453.074 106H390.494ZM503.491 107.341C496.14 107.341 489.435 105.851 483.376 102.871C477.416 99.891 472.747 95.8183 469.37 90.653C465.993 85.4877 464.304 79.6767 464.304 73.22V8.55399C464.304 5.97133 464.95 3.98467 466.241 2.594C467.532 1.10399 469.42 0.358992 471.903 0.358992V73.22C471.903 78.3853 473.244 83.054 475.926 87.226C478.608 91.2987 482.333 94.4773 487.101 96.762C491.968 99.0467 497.432 100.189 503.491 100.189C509.55 100.189 514.964 99.0467 519.732 96.762C524.599 94.4773 528.374 91.2987 531.056 87.226C533.738 83.054 535.079 78.3853 535.079 73.22V8.55399C535.079 5.87199 535.725 3.83566 537.016 2.44499C538.307 1.05433 540.195 0.358992 542.678 0.358992V73.22C542.678 79.6767 540.94 85.4877 537.463 90.653C534.086 95.8183 529.417 99.891 523.457 102.871C517.497 105.851 510.842 107.341 503.491 107.341ZM565.74 5.425C565.74 4.43166 566.088 3.58733 566.783 2.892C567.578 2.09733 568.522 1.69999 569.614 1.69999H635.174C635.174 6.26933 632.691 8.55399 627.724 8.55399H573.339V49.976H617.294C617.294 54.6447 614.761 56.979 609.695 56.979H573.339V99.146H630.853C635.721 99.146 638.154 101.431 638.154 106H569.614C568.522 106 567.578 105.652 566.783 104.957C566.088 104.162 565.74 103.219 565.74 102.126V5.425Z" fill="#01ACEA"/>
</g>
<defs>
<filter id="filter0_d_26_6" x="0.427734" y="0.359009" width="637.727" height="114.982" filterUnits="userSpaceOnUse" color-interpolation-filters="sRGB">
<feFlood flood-opacity="0" result="BackgroundImageFix"/>
<feColorMatrix in="SourceAlpha" type="matrix" values="0 0 0 0 0 0 0 0 0 0 0 0 0 0 0 0 0 0 127 0" result="hardAlpha"/>
<feOffset dx="-7" dy="4"/>
<feGaussianBlur stdDeviation="2"/>
<feComposite in2="hardAlpha" operator="out"/>
<feColorMatrix type="matrix" values="0 0 0 0 0 0 0 0 0 0 0 0 0 0 0 0 0 0 0.25 0"/>
<feBlend mode="normal" in2="BackgroundImageFix" result="effect1_dropShadow_26_6"/>
<feBlend mode="normal" in="SourceGraphic" in2="effect1_dropShadow_26_6" result="shape"/>
</filter>
</defs>
</svg>
