<svg width="180" height="182" viewBox="0 0 180 182" fill="none" xmlns="http://www.w3.org/2000/svg">
<path d="M140.855 130.488C162.225 102.228 156.864 61.7471 128.882 40.0707C100.899 18.3943 60.8917 23.7313 39.522 51.9912C18.1524 80.2511 23.5131 120.732 51.4954 142.409C79.4778 164.085 119.485 158.748 140.855 130.488Z" fill="#1099D2" stroke="#263238" stroke-linejoin="round"/>
<path d="M105.697 152.452C138.549 139.712 154.914 102.422 142.25 69.1625C129.585 35.9034 92.6863 19.2699 59.8339 32.0105C26.9815 44.7512 10.6161 82.0413 23.2807 115.3C35.9453 148.559 72.8441 165.193 105.697 152.452Z" fill="#003468" stroke="#263238" stroke-linejoin="round"/>
<path d="M101.206 140.651C127.621 130.412 140.784 100.434 130.606 73.6919C120.429 46.9501 90.7647 33.5717 64.3499 43.8104C37.935 54.0491 24.7722 84.0277 34.9498 110.77C45.1274 137.511 74.7915 150.89 101.206 140.651Z" fill="#253F59" stroke="#263238" stroke-linejoin="round"/>
<path d="M36.3414 98.4273C34.5905 85.177 37.9638 71.7654 45.7576 60.9907C53.5513 50.216 65.1634 42.9106 78.1711 40.5986C77.4417 40.6959 76.6515 40.8013 75.9829 40.8905C62.5094 42.6878 50.305 49.8272 42.0543 60.7381C33.8037 71.649 30.1828 85.4376 31.9881 99.0706C33.7935 112.704 40.8771 125.064 51.6809 133.433C62.4846 141.802 76.1234 145.494 89.5968 143.697C90.3262 143.6 91.1165 143.494 91.7851 143.405C78.6054 144.589 65.473 140.568 55.1381 132.184C44.8032 123.8 38.0674 111.704 36.3414 98.4273Z" fill="#1099D2" stroke="#263238" stroke-linejoin="round"/>
<path d="M130.727 136.411L135.56 135.766" stroke="#263238" stroke-linejoin="round"/>
<path d="M123.663 143.675L128.48 143.032" stroke="#263238" stroke-linejoin="round"/>
<path d="M77.8487 75.0671C77.2378 70.4542 78.8313 68.4734 82.0073 68.0497C85.1834 67.626 87.2543 69.1337 87.8631 73.7312L88.2174 76.4067L97.6848 75.1437L97.416 73.1141C96.2574 64.3649 91.8925 59.3139 84.585 58.7865L83.9518 54.0044L75.7609 55.0971L76.3942 59.8792C69.577 62.3534 66.6974 68.4021 67.8438 77.059C70.2872 95.5106 89.9589 93.528 91.708 106.736C92.3188 111.349 90.5328 113.277 87.3415 113.703C84.1503 114.129 81.9396 112.734 81.3288 108.121L80.6568 103.047L71.2502 104.302L71.8367 108.73C72.9973 117.494 77.3725 122.622 84.771 123.138L85.3941 127.843L93.585 126.75L92.9619 122.045C99.8702 119.559 102.858 113.511 101.698 104.746C99.2644 86.3717 79.6059 88.3369 77.8487 75.0671Z" fill="white"/>
</svg>
