<svg width="190" height="190" viewBox="0 0 190 190" fill="none" xmlns="http://www.w3.org/2000/svg">
<path d="M150.417 66.69V55.4165C150.417 24.811 125.606 0 95 0C64.3941 0 39.5835 24.811 39.5835 55.4165V66.69C25.1754 72.9782 15.8542 87.1963 15.8335 102.917V150.417C15.8594 172.267 33.5662 189.974 55.4166 190H134.583C156.433 189.974 174.14 172.267 174.167 150.417V102.917C174.146 87.1963 164.825 72.9782 150.417 66.69ZM102.917 134.583C102.917 138.956 99.3722 142.5 95 142.5C90.6278 142.5 87.0835 138.956 87.0835 134.583V118.75C87.0835 114.378 90.6278 110.833 95 110.833C99.3722 110.833 102.917 114.378 102.917 118.75V134.583ZM134.583 63.3335H55.4166V55.4169C55.4166 33.5558 73.1385 15.8335 95 15.8335C116.862 15.8335 134.583 33.5554 134.583 55.4169V63.3335Z" fill="#253F59"/>
</svg>
