<svg width="218" height="202" viewBox="0 0 218 202" fill="none" xmlns="http://www.w3.org/2000/svg">
<path d="M176.323 132.716C198.806 105.334 195.07 64.6701 167.977 41.8913C140.885 19.1126 100.696 22.8444 78.2123 50.2265C55.729 77.6087 59.4655 118.272 86.558 141.051C113.651 163.83 153.84 160.098 176.323 132.716Z" fill="#1099D2" stroke="#263238" stroke-linejoin="round"/>
<path d="M140.314 153.255C173.65 141.839 191.494 105.234 180.171 71.4947C168.847 37.7555 132.643 19.6588 99.3074 31.0747C65.9715 42.4905 48.127 79.0959 59.4506 112.835C70.7742 146.574 106.978 164.671 140.314 153.255Z" fill="#003468" stroke="#263238" stroke-linejoin="round"/>
<path d="M136.299 141.284C163.103 132.11 177.455 102.682 168.355 75.5547C159.256 48.427 130.151 33.8723 103.348 43.0458C76.5442 52.2193 62.1923 81.6472 71.2917 108.775C80.3911 135.903 109.496 150.457 136.299 141.284Z" fill="#253F59" stroke="#263238" stroke-linejoin="round"/>
<path d="M73.1761 96.4982C71.9568 83.1884 75.8641 69.9226 84.0828 59.4684C92.3014 49.0142 104.197 42.1792 117.286 40.3896C116.554 40.4576 115.76 40.5313 115.088 40.5937C101.554 41.8505 89.0732 48.4958 80.3926 59.0678C71.712 69.6398 67.5422 83.2725 68.8006 96.9668C70.0589 110.661 76.6423 123.295 87.1025 132.09C97.5627 140.885 111.043 145.119 124.577 143.863C125.31 143.795 126.104 143.721 126.776 143.658C113.559 144.314 100.598 139.771 90.6069 130.98C80.6158 122.19 74.3695 109.833 73.1761 96.4982Z" fill="#1099D2" stroke="#263238" stroke-linejoin="round"/>
<path d="M165.966 138.228L170.821 137.777" stroke="#263238" stroke-linejoin="round"/>
<path d="M158.617 145.203L163.456 144.754" stroke="#263238" stroke-linejoin="round"/>
<path d="M115.585 74.8177C115.159 70.184 116.831 68.2686 120.021 67.9723C123.211 67.676 125.22 69.2653 125.645 73.8835L125.892 76.5711L135.402 75.688L135.215 73.6492C134.407 64.8607 130.248 59.639 122.967 58.8196L122.526 54.0161L114.298 54.7801L114.739 59.5837C107.829 61.7831 104.709 67.7117 105.508 76.4076C107.211 94.9422 126.947 93.7484 128.166 107.016C128.592 111.65 126.73 113.505 123.524 113.803C120.318 114.1 118.165 112.618 117.74 107.984L117.271 102.887L107.822 103.765L108.231 108.213C109.04 117.017 113.206 122.316 120.578 123.127L121.012 127.853L129.24 127.089L128.806 122.363C135.808 120.155 139.036 114.232 138.227 105.428C136.531 86.9702 116.81 88.1472 115.585 74.8177Z" fill="white"/>
<path d="M139.08 151.661C161.563 124.279 157.826 83.6153 130.734 60.8366C103.641 38.0578 63.4522 41.7896 40.9688 69.1718C18.4855 96.554 22.222 137.217 49.3146 159.996C76.4071 182.775 116.596 179.043 139.08 151.661Z" fill="#1099D2" stroke="#263238" stroke-linejoin="round"/>
<path d="M103.07 172.2C136.406 160.785 154.251 124.179 142.927 90.44C131.604 56.7008 95.3999 38.6041 62.064 50.02C28.7281 61.4358 10.8836 98.0412 22.2072 131.78C33.5308 165.52 69.7345 183.616 103.07 172.2Z" fill="#003468" stroke="#263238" stroke-linejoin="round"/>
<path d="M99.056 160.229C125.859 151.056 140.211 121.628 131.112 94.5C122.012 67.3723 92.9075 52.8176 66.1041 61.9911C39.3007 71.1646 24.9488 100.593 34.0482 127.72C43.1476 154.848 72.2526 169.403 99.056 160.229Z" fill="#253F59" stroke="#263238" stroke-linejoin="round"/>
<path d="M35.9326 115.443C34.7133 102.134 38.6206 88.8678 46.8393 78.4136C55.0579 67.9595 66.9531 61.1245 80.0429 59.3349C79.3102 59.4029 78.5164 59.4766 77.8447 59.539C64.3101 60.7957 51.8298 67.4411 43.1492 78.0131C34.4685 88.5851 30.2988 102.218 31.5571 115.912C32.8155 129.606 39.3989 142.241 49.859 151.035C60.3192 159.83 73.7993 164.065 87.3339 162.808C88.0667 162.74 88.8605 162.666 89.5321 162.604C76.3156 163.26 63.3546 158.717 53.3635 149.926C43.3724 141.135 37.126 128.778 35.9326 115.443Z" fill="#1099D2" stroke="#263238" stroke-linejoin="round"/>
<path d="M128.723 157.173L133.578 156.722" stroke="#263238" stroke-linejoin="round"/>
<path d="M121.374 164.149L126.213 163.699" stroke="#263238" stroke-linejoin="round"/>
<path d="M78.3414 93.7629C77.9156 89.1293 79.5871 87.2138 82.7775 86.9176C85.968 86.6213 87.9769 88.2106 88.4013 92.8288L88.6482 95.5163L98.1586 94.6332L97.9712 92.5944C97.1636 83.8059 93.0043 78.5843 85.7238 77.7649L85.2824 72.9613L77.0544 73.7254L77.4958 78.5289C70.5851 80.7284 67.4657 86.657 68.2648 95.3528C69.9679 113.887 89.7032 112.694 90.9223 125.961C91.3481 130.595 89.4863 132.45 86.2806 132.748C83.0749 133.046 80.9218 131.563 80.496 126.929L80.0277 121.832L70.5784 122.71L70.9872 127.158C71.7961 135.962 75.9626 141.261 83.3347 142.072L83.769 146.798L91.997 146.034L91.5627 141.308C98.565 139.1 101.793 133.177 100.984 124.373C99.2876 105.915 79.5662 107.092 78.3414 93.7629Z" fill="white"/>
</svg>
