<svg width="250" height="217" viewBox="0 0 250 217" fill="none" xmlns="http://www.w3.org/2000/svg">
<path d="M189.512 158.654C215.701 154.966 234.192 130.733 230.812 104.528C227.433 78.3235 203.463 60.0696 177.274 63.7573C151.085 67.4449 132.594 91.6777 135.974 117.883C139.353 144.088 163.323 162.342 189.512 158.654Z" fill="#1099D2" stroke="#263238" stroke-linejoin="round"/>
<path d="M159.347 151.748C183.433 162.317 211.733 151.217 222.556 126.956C233.38 102.695 222.628 74.4599 198.542 63.8909C174.456 53.3219 146.157 64.4214 135.333 88.6825C124.51 112.943 135.261 141.179 159.347 151.748Z" fill="#003468" stroke="#263238" stroke-linejoin="round"/>
<path d="M163.19 143.141C182.553 151.642 205.307 142.722 214.013 123.218C222.718 103.714 214.078 81.0111 194.714 72.5103C175.351 64.0095 152.597 72.9295 143.891 92.4337C135.186 111.938 143.826 134.64 163.19 143.141Z" fill="#253F59" stroke="#263238" stroke-linejoin="round"/>
<path d="M151.129 86.6396C157.184 78.7097 166.033 73.394 175.831 71.8016C185.629 70.2092 195.619 72.463 203.716 78.0929C203.279 77.7601 202.805 77.3995 202.405 77.0945C194.333 70.9471 184.117 68.2934 174.006 69.7171C163.894 71.1409 154.715 76.5255 148.488 84.6865C142.261 92.8474 139.496 103.116 140.8 113.234C142.105 123.351 147.373 132.489 155.445 138.636C155.882 138.969 156.356 139.329 156.756 139.634C149.162 133.318 144.335 124.273 143.287 114.394C142.238 104.516 145.048 94.5701 151.129 86.6396Z" fill="#1099D2" stroke="#263238" stroke-linejoin="round"/>
<path d="M181.036 156.451L183.931 158.655" stroke="#263238" stroke-linejoin="round"/>
<path d="M173.473 156.571L176.359 158.769" stroke="#263238" stroke-linejoin="round"/>
<path d="M185.387 96.1519C187.494 93.3905 189.38 93.1824 191.283 94.6315C193.186 96.0806 193.487 97.9689 191.387 100.721L190.165 102.323L195.837 106.642L196.764 105.427C200.761 100.19 201.113 95.2191 197.526 91.0906L199.711 88.228L194.803 84.4908L192.619 87.3534C187.71 85.0706 183.001 86.7524 179.047 91.9346C170.618 102.98 182.066 112.295 176.033 120.201C173.926 122.963 171.965 123.042 170.054 121.586C168.142 120.13 167.707 118.227 169.814 115.466L172.132 112.428L166.496 108.136L164.474 110.787C160.47 116.034 160.083 121.051 163.724 125.221L161.575 128.037L166.482 131.775L168.631 128.958C173.595 131.283 178.361 129.658 182.364 124.412C190.757 113.412 179.326 104.095 185.387 96.1519Z" fill="white"/>
<path d="M126.909 89.4619C137.045 65.4035 125.874 37.4651 101.958 27.0598C78.0424 16.6545 50.4381 27.7226 40.3022 51.781C30.1664 75.8394 41.3373 103.778 65.2531 114.183C89.1689 124.588 116.773 113.52 126.909 89.4619Z" fill="#1099D2" stroke="#263238" stroke-linejoin="round"/>
<path d="M105.784 111.525C126.935 96.4672 131.859 66.8673 116.782 45.4117C101.705 23.9561 72.3356 18.7696 51.1843 33.8273C30.0329 48.885 25.1088 78.4849 40.1859 99.9405C55.2631 121.396 84.6322 126.583 105.784 111.525Z" fill="#003468" stroke="#263238" stroke-linejoin="round"/>
<path d="M100.436 103.911C117.444 91.8079 121.407 68.0106 109.288 50.7583C97.1691 33.5061 73.5573 29.332 56.5497 41.4353C39.542 53.5386 35.5789 77.3359 47.6979 94.5881C59.8169 111.84 83.4287 116.014 100.436 103.911Z" fill="#253F59" stroke="#263238" stroke-linejoin="round"/>
<path d="M46.4531 85.5212C42.7994 76.3758 42.7759 66.1858 46.3877 57.0772C49.9995 47.9686 56.9675 40.6451 65.8379 36.6346C65.3346 36.8364 64.7894 37.055 64.328 37.24C55.0317 40.9674 47.6105 48.2798 43.6972 57.5685C39.7838 66.8572 39.6988 77.3614 43.4608 86.7703C47.2229 96.1791 54.5238 103.722 63.7575 107.739C72.9912 111.757 83.4012 111.92 92.6976 108.192C93.2009 107.99 93.7461 107.772 94.2074 107.587C85.0097 110.823 74.9016 110.333 66 106.22C57.0985 102.107 50.0939 94.6898 46.4531 85.5212Z" fill="#1099D2" stroke="#263238" stroke-linejoin="round"/>
<path d="M120.75 95.5282L124.085 94.1913" stroke="#263238" stroke-linejoin="round"/>
<path d="M117.023 101.997L120.347 100.665" stroke="#263238" stroke-linejoin="round"/>
<path d="M71.8595 61.3096C70.5865 58.126 71.3653 56.4223 73.5567 55.5437C75.7481 54.665 77.5005 55.3661 78.7692 58.5391L79.5075 60.3856L86.0398 57.7665L85.4797 56.3657C83.0653 50.3274 79.0319 47.5118 73.7174 48.4606L72.3978 45.1602L66.7463 47.4262L68.0659 50.7266C63.6461 53.7301 62.6866 58.5722 65.0755 64.5468C70.1673 77.2812 83.8566 72.2973 87.5015 81.413C88.7744 84.5967 87.8486 86.2977 85.6467 87.1806C83.4449 88.0634 81.613 87.468 80.3401 84.2844L78.9399 80.7824L72.4495 83.3848L73.6716 86.441C76.0901 92.4899 80.1449 95.3585 85.5222 94.3846L86.8206 97.6318L92.4721 95.3659L91.1737 92.1186C95.6564 89.0899 96.6935 84.2289 94.2749 78.18C89.2044 65.4986 75.5213 70.4678 71.8595 61.3096Z" fill="white"/>
<path d="M164.601 165.446C191.979 142.957 196.218 102.343 174.071 74.7321C151.923 47.1211 111.775 42.969 84.3978 65.4581C57.0203 87.9472 52.7806 128.561 74.9281 156.172C97.0757 183.783 137.224 187.935 164.601 165.446Z" fill="#1099D2" stroke="#263238" stroke-linejoin="round"/>
<path d="M125.286 178.594C160.205 173.876 184.825 141.438 180.276 106.141C175.728 70.8442 143.733 46.0549 108.813 50.7725C73.8943 55.4901 49.2742 87.9282 53.8229 123.225C58.3716 158.522 90.3667 183.311 125.286 178.594Z" fill="#003468" stroke="#263238" stroke-linejoin="round"/>
<path d="M123.675 166.07C151.751 162.282 171.55 136.206 167.897 107.827C164.245 79.4477 138.525 59.5127 110.449 63.3006C82.374 67.0886 62.5752 93.1651 66.2274 121.544C69.8796 149.923 95.6 169.858 123.675 166.07Z" fill="#253F59" stroke="#263238" stroke-linejoin="round"/>
<path d="M70.4625 109.868C71.8538 96.5751 78.2655 84.3219 88.3596 75.6648C98.4538 67.0078 111.451 62.6156 124.639 63.4047C123.907 63.329 123.114 63.247 122.443 63.1776C108.922 61.7793 95.3879 65.8717 84.8177 74.5545C74.2476 83.2373 67.5072 95.7993 66.0793 109.477C64.6515 123.155 68.6533 136.828 77.2042 147.488C85.7552 158.148 98.1549 164.923 111.676 166.321C112.408 166.397 113.201 166.479 113.872 166.548C100.78 164.622 88.9491 157.646 80.8575 147.081C72.7659 136.516 69.0409 123.18 70.4625 109.868Z" fill="#1099D2" stroke="#263238" stroke-linejoin="round"/>
<path d="M153.37 168.84L158.22 169.341" stroke="#263238" stroke-linejoin="round"/>
<path d="M116.277 96.8452C116.76 92.2172 118.772 90.6632 121.959 90.9928C125.146 91.3225 126.808 93.272 126.326 97.8846L126.046 100.569L135.547 101.551L135.759 99.515C136.676 90.7372 133.611 84.8066 126.628 82.5876L127.129 77.7898L118.91 76.9398L118.409 81.7375C111.202 82.5515 106.99 87.7607 106.083 96.4459C104.151 114.958 123.742 117.623 122.358 130.875C121.875 135.503 119.688 136.961 116.486 136.63C113.284 136.299 111.46 134.426 111.943 129.798L112.474 124.707L103.035 123.731L102.571 128.174C101.653 136.967 104.71 142.975 111.784 145.203L111.291 149.924L119.51 150.774L120.003 146.053C127.301 145.249 131.619 140.066 132.537 131.273C134.461 112.838 114.887 110.159 116.277 96.8452Z" fill="white"/>
</svg>
