<svg width="105" height="165" viewBox="0 0 105 165" fill="none" xmlns="http://www.w3.org/2000/svg">
<path d="M103.859 57.7272L81.7029 44.9423C81.2084 44.6769 80.4968 44.8579 79.6284 45.5212C79.1701 45.859 78.7117 46.1967 78.2534 46.5103L77.7348 46.8359C77.4332 47.0289 77.1317 47.2339 76.8181 47.4149C76.5045 47.5958 76.3839 47.6561 76.1668 47.7888L75.3587 48.235L74.6109 48.6089L73.8631 48.9708L73.0309 49.3205C72.8017 49.417 72.5726 49.5256 72.3313 49.61L71.4268 49.9477L70.7875 50.1769L69.8105 50.4784L69.2316 50.6473L68.1823 50.9126L67.6516 51.0332C67.2897 51.1177 66.9158 51.19 66.5419 51.2503L66.0836 51.3348L64.8775 51.5036H64.4795C64.0694 51.5036 63.6472 51.588 63.2733 51.6122H62.9477H61.6451H61.3797C60.9334 51.6122 60.4872 51.6122 60.0409 51.6122H59.8359C59.3775 51.6122 58.9072 51.6122 58.4488 51.5157H58.3161L56.8809 51.3227H56.8085L56.1451 51.19L42.3953 43.2537C41.3822 42.6868 40.4534 43.0969 39.8504 44.5805C31.8658 64.4092 14.8595 84.5152 3.52189 89.5448C3.29653 89.6407 3.07883 89.7536 2.87061 89.8825C2.7325 89.9625 2.59954 90.0511 2.47257 90.1479L2.29166 90.2685L1.79714 90.6906C1.62829 90.8474 1.4715 91.0163 1.3147 91.1851C0.506085 92.0681 0.0546693 93.2203 0.0482483 94.4175L1.6886 114.56C1.6886 127.55 7.21264 141.251 18.4899 147.801L40.6585 160.574L40.8153 160.658C46.5419 163.827 53.1202 165.114 59.6188 164.337C62.0466 163.935 64.2961 162.808 66.0715 161.104C90.8695 135.498 102.919 100.798 102.919 81.6688L104.559 59.4761C104.547 58.5956 104.294 57.9805 103.859 57.7272Z" fill="#01ACEA"/>
<path opacity="0.4" d="M64.383 56.0025C64.1618 55.8906 63.9153 55.8385 63.6678 55.8512C63.4203 55.8639 63.1804 55.941 62.9718 56.0749L62.7306 56.2558C62.5908 56.3955 62.4655 56.5491 62.3567 56.7141C62.2356 56.9228 62.1308 57.1406 62.0431 57.3654C59.9644 62.46 57.4672 67.3737 54.5772 72.056C52.0758 76.1725 49.3247 80.132 46.3393 83.9122C44.892 85.7214 43.4446 87.4461 41.9852 89.0624C41.9903 89.0821 41.9903 89.1029 41.9852 89.1227L40.7791 90.4615C40.357 90.8836 39.9589 91.3178 39.573 91.7279C39.3679 91.957 39.1629 92.1742 38.9458 92.3792C34.2901 97.059 29.731 100.557 25.8352 102.281C25.1711 102.577 24.5632 102.985 24.0381 103.488L23.5918 103.934C23.5666 103.972 23.5384 104.009 23.5074 104.042L23.5918 103.934L1.44736 91.1731C1.46458 91.1397 1.48935 91.1108 1.51972 91.0886C1.56043 91.0227 1.60906 90.9619 1.66449 90.9077L1.79714 90.7871C1.83426 90.7439 1.87459 90.7036 1.91776 90.6665L2.05042 90.5459C2.16497 90.4346 2.2858 90.3299 2.41228 90.2323L2.59319 90.1117C2.72586 90.0272 2.85852 89.9187 2.9912 89.8463C3.19662 89.7125 3.4148 89.5994 3.64251 89.5086C14.9801 84.4791 31.9985 64.373 39.971 44.5443C40.4052 43.4829 40.9962 42.9643 41.6716 42.9643C41.9716 42.9761 42.2631 43.0677 42.5159 43.2296L56.1331 51.2624L64.383 56.0025Z" fill="white"/>
<path opacity="0.1" d="M103.859 57.7272L81.7029 44.9423C81.2205 44.689 80.4968 44.8699 79.6404 45.5212C79.1942 45.871 78.7238 46.2087 78.2534 46.5223L77.7468 46.848C77.4453 47.041 77.1437 47.246 76.8302 47.4269C76.5166 47.6078 76.396 47.6681 76.1789 47.8008L75.3708 48.2471C75.1295 48.3798 74.8763 48.4883 74.623 48.6089L73.8752 48.9828L73.0309 49.3326C72.8138 49.4411 72.5725 49.5376 72.3434 49.6341L71.4388 49.9598L70.7995 50.1889L69.8105 50.4905L69.2316 50.6593L68.1943 50.9247L67.6757 51.0453L66.554 51.2624L66.0836 51.3468C65.6976 51.4192 65.3117 51.4674 64.8775 51.5157H64.4795L63.2733 51.6363H62.9477C62.5135 51.6363 62.0793 51.6363 61.645 51.6363H61.3918C60.9334 51.6363 60.4872 51.6363 60.0409 51.6363H59.8479C59.3775 51.6363 58.9072 51.576 58.4488 51.5398H58.3161C57.8337 51.5398 57.3512 51.4313 56.8929 51.3589H56.8206C56.5957 51.3299 56.3737 51.2814 56.1572 51.2142L64.4071 55.9663L64.5518 56.0507C64.8654 56.247 65.1429 56.4959 65.372 56.7865C65.4303 56.8367 65.4829 56.8934 65.5288 56.9553C73.9716 66.8214 90.6644 66.8093 101.797 58.2941C102.641 57.6549 103.341 57.4498 103.811 57.6669H103.884C104.104 57.7983 104.27 58.0034 104.354 58.2459C104.252 58.0225 104.078 57.8399 103.859 57.7272Z" fill="black"/>
<path opacity="0.2" d="M40.3087 160.513L18.4417 147.921C7.17645 141.36 1.64034 127.658 1.64034 114.668L3.05176e-05 94.5261C0.0129469 93.7523 0.202132 92.9916 0.553255 92.3019C0.904378 91.6122 1.40818 91.0116 2.02631 90.5459C1.75249 90.7734 1.4983 91.0235 1.26645 91.2937L23.423 104.054C22.6253 104.945 22.1943 106.104 22.2168 107.299L23.8451 127.441C23.8089 140.311 29.2365 153.892 40.3087 160.513Z" fill="black"/>
<path d="M104.511 59.5967L102.87 81.7894C102.87 100.967 90.8092 135.619 66.0354 161.225C64.2567 162.936 61.9961 164.06 59.5585 164.445C53.07 165.245 46.4944 163.979 40.767 160.827L40.6102 160.742L40.3208 160.561C29.2365 153.94 23.7969 140.371 23.7969 127.49L22.1686 107.347C22.1515 106.157 22.582 105.003 23.3747 104.115C23.5103 103.957 23.6553 103.808 23.8089 103.669C24.3331 103.165 24.9413 102.757 25.606 102.462C29.5139 100.726 34.0489 97.2278 38.7287 92.5601L39.3559 91.9088L40.562 90.6303L41.7681 89.2915C43.2396 87.6632 44.687 85.9385 46.1343 84.1293C49.1184 80.3482 51.8694 76.3888 54.3721 72.2731C57.2583 67.5947 59.7514 62.6851 61.826 57.5946C61.9225 57.3677 62.0312 57.1463 62.1516 56.9312C62.2605 56.7699 62.3858 56.6203 62.5255 56.4849C62.6 56.417 62.6807 56.3564 62.7667 56.304C62.9711 56.1652 63.2095 56.085 63.4562 56.0723C63.7029 56.0595 63.9483 56.1146 64.1659 56.2316L64.3227 56.304C64.6386 56.4972 64.9165 56.7466 65.1428 57.0397L65.2996 57.2207C73.7425 67.0747 90.4353 67.0626 101.568 58.5595C102.4 57.9202 103.112 57.7152 103.582 57.9202H103.642C103.755 57.9685 103.851 58.048 103.92 58.1494C104.279 58.5487 104.487 59.0604 104.511 59.5967Z" fill="#01ACEA"/>
<path d="M69.7743 132.386L56.5793 139.997L58.6176 116.128C57.0376 115.296 56.0366 113.233 56.0366 110.29C56.0366 105.031 59.2328 98.9284 63.1768 96.6489C67.1209 94.3693 70.3171 96.7815 70.3171 102.04C70.2317 105.156 69.3426 108.198 67.736 110.869L69.7743 132.386Z" fill="#455A64"/>
<path d="M69.7743 132.386L57.8217 125.475L56.5793 139.997L69.7743 132.386Z" fill="#37474F"/>
<path d="M63.1768 96.6489C60.3022 98.5879 58.1582 101.432 57.0859 104.73L67.736 110.869C69.3426 108.198 70.2317 105.156 70.3171 102.04C70.3171 96.7815 67.1209 94.3693 63.1768 96.6489Z" fill="#37474F"/>
<path d="M79.7731 1.43736C76.1547 -0.685417 71.4991 -0.444194 67.1209 2.07661L32.4448 22.1103C28.83 24.4001 25.826 27.5341 23.6913 31.2425C21.5565 34.951 20.3552 39.1227 20.1906 43.3984V85.8782C20.2409 86.4166 20.434 86.9317 20.7499 87.3706C21.0658 87.8095 21.4931 88.1562 21.9877 88.3748C23.3313 89.0495 24.8141 89.4009 26.3176 89.4009C27.8212 89.4009 29.304 89.0495 30.6477 88.3748C31.1422 88.1562 31.5695 87.8095 31.8854 87.3706C32.2013 86.9317 32.3944 86.4166 32.4448 85.8782V43.3984C32.6106 41.2721 33.2502 39.2098 34.3167 37.3628C35.3831 35.5158 36.8494 33.9309 38.6081 32.7242L73.26 12.6664V55.1823C73.3115 55.722 73.5065 56.2381 73.8246 56.6771C74.1427 57.116 74.5724 57.462 75.0692 57.679C76.4097 58.3573 77.8909 58.7107 79.3932 58.7107C80.8955 58.7107 82.3767 58.3573 83.7172 57.679C84.2117 57.4603 84.639 57.1136 84.9549 56.6748C85.2708 56.2359 85.4639 55.7207 85.5143 55.1823V12.6664C85.5384 7.66096 83.4397 3.54808 79.7731 1.43736Z" fill="#37474F"/>
<path d="M73.26 12.6664V55.1461C73.3115 55.6858 73.5065 56.2019 73.8246 56.6409C74.1427 57.0799 74.5724 57.4258 75.0692 57.6428C75.6324 57.9621 76.2372 58.2017 76.8663 58.3544V10.5919L73.26 12.6664Z" fill="#263238"/>
</svg>
