<svg width="190" height="190" viewBox="0 0 190 190" fill="none" xmlns="http://www.w3.org/2000/svg">
<g clip-path="url(#clip0_89_3318)">
<path d="M0.00235736 94.8886C-0.0784418 115.19 16.3138 131.713 36.6155 131.794C45.9652 131.831 54.978 128.304 61.8189 121.93L116.598 146.663C116.218 148.712 116.009 150.788 115.974 152.871C115.909 173.312 132.427 189.935 152.869 190C173.31 190.065 189.933 173.546 189.998 153.105C190.063 132.663 173.545 116.04 153.103 115.975C140.89 115.937 129.445 121.925 122.513 131.98L71.0463 108.742C74.7019 99.9145 74.716 89.9995 71.086 81.162L122.481 57.8048C134.054 74.5432 157.006 78.7299 173.744 67.1567C190.482 55.5835 194.669 32.6329 183.096 15.8945C171.522 -0.843943 148.571 -5.03067 131.833 6.54251C121.865 13.4349 115.923 24.7879 115.942 36.9071C115.975 38.993 116.187 41.0719 116.574 43.1219L61.9375 67.9495C47.1346 54.0495 23.8663 54.7815 9.96623 69.5844C3.53306 76.436 -0.0324827 85.4903 0.00235736 94.8886Z" fill="#253F59"/>
</g>
<defs>
<clipPath id="clip0_89_3318">
<rect width="190" height="190" fill="white"/>
</clipPath>
</defs>
</svg>
