<svg width="33" height="31" viewBox="0 0 33 31" fill="none" xmlns="http://www.w3.org/2000/svg">
<path d="M0.372613 6.489C0.372613 4.80767 0.857613 3.482 1.82761 2.512C2.79761 1.47733 4.09095 0.959998 5.70761 0.959998H32.6736C32.6736 2.64133 32.1886 3.99933 31.2186 5.034C30.3133 6.004 28.9876 6.489 27.2416 6.489H0.372613ZM0.372613 18.489C0.372613 16.8077 0.857613 15.482 1.82761 14.512C2.79761 13.4773 4.09095 12.96 5.70761 12.96H32.6736C32.6736 14.6413 32.1886 15.9993 31.2186 17.034C30.3133 18.004 28.9876 18.489 27.2416 18.489H0.372613ZM0.372613 30.489C0.372613 28.8077 0.857613 27.482 1.82761 26.512C2.79761 25.4773 4.09095 24.96 5.70761 24.96H32.6736C32.6736 26.6413 32.1886 27.9993 31.2186 29.034C30.3133 30.004 28.9876 30.489 27.2416 30.489H0.372613Z" fill="white"/>
</svg>
