<svg width="190" height="190" viewBox="0 0 190 190" fill="none" xmlns="http://www.w3.org/2000/svg">
<g clip-path="url(#clip0_89_3312)">
<path d="M174.167 126.667V166.25C174.167 168.35 173.333 170.363 171.848 171.848C170.363 173.333 168.35 174.167 166.25 174.167H23.75C21.6504 174.167 19.6367 173.333 18.1521 171.848C16.6674 170.363 15.8333 168.35 15.8333 166.25V126.667H0V166.25C0 172.549 2.50222 178.59 6.95621 183.044C11.4102 187.498 17.4511 190 23.75 190H166.25C172.549 190 178.59 187.498 183.044 183.044C187.498 178.59 190 172.549 190 166.25V126.667H174.167Z" fill="#253F59"/>
<path d="M94.7388 -1.515e-06C91.6211 -0.00859588 88.5324 0.598158 85.6497 1.78548C82.7669 2.97281 80.1469 4.71737 77.9396 6.91917L46.9142 37.9446L58.1084 49.1387L86.8775 20.3775L87.0833 150.417H102.917L102.711 20.4883L131.361 49.1387L142.555 37.9446L111.53 6.91917C109.324 4.71761 106.706 2.97314 103.824 1.78579C100.943 0.598446 97.8552 -0.00841867 94.7388 -1.515e-06Z" fill="#253F59"/>
</g>
<defs>
<clipPath id="clip0_89_3312">
<rect width="190" height="190" fill="white"/>
</clipPath>
</defs>
</svg>
